<?xml version="1.0" standalone="yes"?>
<svg xmlns="http://www.w3.org/2000/svg" width="761" height="262">
<path style="fill:#ffffff; stroke:none;" d="M0 0L0 262L761 262L761 0L0 0z"/>
<path style="fill:#000000; stroke:none;" d="M5 5L5 257L252 257L252 5L5 5M257 5L257 257L504 257L504 5L257 5M509 5L509 257L756 257L756 5L509 5z"/>
<path style="fill:#ffffff; stroke:none;" d="M6 6L6 256L251 256L251 6L6 6M258 6L258 256L503 256L503 6L258 6M510 6L510 256L755 256L755 6L510 6z"/>
<path style="fill:#000000; stroke:none;" d="M313 45C316.274 52.0201 323.717 58.5742 330 63C308.87 86.165 316.599 123.742 347 134.452C357.37 138.105 368.817 135.722 379 133L364 148C363.979 146.255 364.42 140.275 361.17 140.921C359.39 141.275 359.188 143.596 359.059 145.019C358.714 148.813 359.551 152.587 357.397 156C351.521 165.307 340.771 173.228 333 181C329.051 184.949 324.543 188.501 323 194C336.216 184.69 345.096 169.987 358 160.318C361.606 157.616 370.687 159.831 372.824 156.455C374.877 153.212 368.519 153.05 367 153L387 133C383.089 143.152 380.803 155.369 384.548 166C394.719 194.871 432.332 205.262 454.985 183.907C477.307 162.865 470.103 124.737 442 112.876C428.243 107.069 415.036 110.58 402 116L439 79C446.056 71.9443 454.247 65.1671 460 57C452.002 59.2448 445.729 68.2715 440 74L397 117C404.338 100.777 406.226 83.3743 395.211 68C382.016 49.5828 347.834 42.8907 332 62C326.223 56.2233 320.467 48.482 313 45M592 51.4645C567.617 55.8607 551.216 83.3489 559.548 107C566.98 128.097 588.237 139.612 610 135.532C640.007 129.908 651.93 93.0841 635.895 69C626.441 54.801 608.51 48.4877 592 51.4645z"/>
<path style="fill:#ffffff; stroke:none;" d="M333 63C336.931 68.5803 342.18 73.1821 347 78C349.731 80.7302 352.49 84.2174 356 85.9722C358.862 87.4034 369.534 85.4078 370.369 89.1698C371.026 92.1312 365.59 91.9482 364 92C371.308 102.374 382.032 111.031 391 120C408.768 105.277 402.104 74.282 386 61.3789C370.378 48.8619 347.974 50.6039 333 63M592 53.4645C567.037 57.9653 552.634 87.1194 562.904 110C571.008 128.058 589.851 136.872 609 133.674C634.783 129.369 648.311 98.8694 637.676 76C629.595 58.6233 610.464 50.1354 592 53.4645z"/>
<path style="fill:#000000; stroke:none;" d="M92 59.4645C67.6172 63.8607 51.2155 91.3489 59.5478 115C66.9802 136.097 88.2365 147.612 110 143.532C140.007 137.908 151.931 101.084 135.895 77C126.441 62.801 108.511 56.4877 92 59.4645z"/>
<path style="fill:#ffffff; stroke:none;" d="M92 61.4645C67.0368 65.9653 52.6344 95.1194 62.9035 118C71.0082 136.058 89.8511 144.872 109 141.674C134.783 137.369 148.311 106.869 137.676 84C129.595 66.6233 110.464 58.1354 92 61.4645z"/>
<path style="fill:#000000; stroke:none;" d="M578 73C583.992 78.9923 589.872 85.1278 596 90.9807C597.237 92.1625 601.98 97.2522 603.824 94.338C605.366 91.901 601.385 88.4708 599.981 87C593.802 80.5314 587.325 74.3253 581 68C581.949 67.9888 583.166 68.068 584.141 67.9414C586.263 67.6658 590.405 65.4534 586.663 63.5988C583.884 62.2213 576.882 62.3244 574.603 64.6034C572.753 66.4535 572.977 69.5983 573.005 71.9992C573.025 73.6695 572.852 75.9597 574.008 77.338C576.774 80.6343 577.879 74.5569 578 73z"/>
<path style="fill:#ffffff; stroke:none;" d="M331 65C326.8 69.6674 323.257 74.9263 321.44 81C312.388 111.246 339.15 140.064 370 133.482C376.79 132.034 382.778 128.439 388 124C380.991 114.051 369.949 103.009 360 96C359.948 97.5896 360.131 103.026 357.17 102.369C353.408 101.534 355.403 90.8623 353.972 88C352.217 84.4903 348.73 81.7314 346 79C341.182 74.1799 336.58 68.9308 331 65z"/>
<path style="fill:#000000; stroke:none;" d="M657 110.465C632.617 114.861 616.216 142.349 624.548 166C631.98 187.097 653.237 198.612 675 194.532C705.007 188.908 716.931 152.084 700.895 128C691.441 113.801 673.51 107.488 657 110.465z"/>
<path style="fill:#ffffff; stroke:none;" d="M395 125C401.791 134.64 411.667 142.667 420 151L419 152C410.667 143.667 402.64 133.791 393 127C385.233 139.691 381.498 154.727 387.904 169C400.299 196.617 438.896 201.806 457.761 177.961C474.281 157.079 465.691 124.526 441 114.475C424.742 107.857 407.08 113.203 395 125M657 112.465C632.037 116.965 617.634 146.119 627.904 169C636.008 187.058 654.851 195.872 674 192.674C699.783 188.369 713.311 157.869 702.676 135C694.595 117.623 675.464 109.135 657 112.465M401 116L400 118C401.263 117.029 401.392 117.306 401 116M396 117L395 119C396.263 118.029 396.392 118.306 396 117z"/>
<path style="fill:#000000; stroke:none;" d="M123 161L115 161L116.825 158.846C121.808 149.793 106.109 157.131 106.921 164C107.595 169.699 119.062 174.57 115 166L123 166C125.281 193.886 158.017 211.504 183 199.877C201.415 191.306 208.903 174.383 207.96 155C206.656 128.205 175.989 111.89 152 119.749C133.736 125.733 123.012 142.239 123 161z"/>
<path style="fill:#ffffff; stroke:none;" d="M124 161L158 161C160.282 161 167.656 159.947 168.369 163.17C169.168 166.785 160.791 165.999 159 166L125 166C127.176 182.144 139.039 196.15 155 200.239C176.859 205.839 202.971 191.443 205.816 168C207.016 158.11 205.827 147.576 200.532 139C189.765 121.562 165.398 114.194 147 123.89C137.76 128.761 130.068 136.98 126.75 147C125.236 151.571 125.11 156.35 124 161M380 131L379 133C380.263 132.029 380.392 132.306 380 131M387 132L388 133L387 132z"/>
<path style="fill:#000000; stroke:none;" d="M645 174C644.951 172.497 644.086 164.994 641.008 168.662C639.669 170.258 640.01 173.078 640.001 175C639.989 177.413 639.445 181.263 641.603 182.972C644.095 184.946 652.899 184.771 655.663 183.401C660.125 181.19 654.037 179.137 652.04 179.019C650.705 178.94 649.335 179.001 648 179C653.326 173.674 658.778 168.447 663.981 163C665.385 161.529 669.366 158.099 667.824 155.662C666.191 153.082 662.207 156.964 661 158.059C655.443 163.105 650.307 168.693 645 174z"/>
</svg>
